<?xml version="1.0" encoding="UTF-8" standalone="no"?>
<svg
   xmlns:dc="http://purl.org/dc/elements/1.1/"
   xmlns:cc="http://creativecommons.org/ns#"
   xmlns:rdf="http://www.w3.org/1999/02/22-rdf-syntax-ns#"
   xmlns:svg="http://www.w3.org/2000/svg"
   xmlns="http://www.w3.org/2000/svg"
   xmlns:sodipodi="http://sodipodi.sourceforge.net/DTD/sodipodi-0.dtd"
   xmlns:inkscape="http://www.inkscape.org/namespaces/inkscape"
   width="104.51998mm"
   height="23.655659mm"
   viewBox="0 0 104.51998 23.655659"
   version="1.1"
   id="svg46"
   inkscape:version="1.0 (4035a4fb49, 2020-05-01)"
   sodipodi:docname="logoGie.svg">
  <defs
     id="defs40" />
  <sodipodi:namedview
     fit-margin-bottom="0"
     fit-margin-right="0"
     fit-margin-left="0"
     fit-margin-top="0"
     id="base"
     pagecolor="#ffffff"
     bordercolor="#666666"
     borderopacity="1.0"
     inkscape:pageopacity="0.0"
     inkscape:pageshadow="2"
     inkscape:zoom="0.35"
     inkscape:cx="298.61739"
     inkscape:cy="307.95283"
     inkscape:document-units="mm"
     inkscape:current-layer="g61"
     inkscape:document-rotation="0"
     showgrid="false"
     inkscape:window-width="1366"
     inkscape:window-height="705"
     inkscape:window-x="-8"
     inkscape:window-y="-8"
     inkscape:window-maximized="1" />
  <metadata
     id="metadata43">
    <rdf:RDF>
      <cc:Work
         rdf:about="">
        <dc:format>image/svg+xml</dc:format>
        <dc:type
           rdf:resource="http://purl.org/dc/dcmitype/StillImage" />
        <dc:title></dc:title>
      </cc:Work>
    </rdf:RDF>
  </metadata>
  <g
     transform="translate(218.15111,20.86149)"
     inkscape:label="Capa 1"
     inkscape:groupmode="layer"
     id="layer1">
    <g
       transform="translate(-270.63095,-82.39881)"
       id="g61">
      <path
         sodipodi:nodetypes="csssscscssssssscccccccssscccssscccccssscccccccssscccccccccccssscccccsscscssccscccsssccccccsscccccccccccccccccc"
         style="fill:#575654;stroke-width:0.264365"
         d="m 99.048793,84.843256 c -7.435637,-2.32498 -9.62409,-13.91095 -3.792342,-20.07716 1.622805,-1.71588 3.618911,-2.67861 6.416459,-3.09469 3.35687,-0.49927 8.11394,0.44844 9.88116,1.96854 0.55552,0.47784 0.71576,0.94468 0.9476,2.76073 0.15346,1.2021 0.23339,2.23095 0.17762,2.28632 -0.0558,0.0554 -0.75139,0.13503 -1.54582,0.17699 l -1.44441,0.0763 -0.28092,-1.15378 c -0.36469,-1.49782 -1.1095,-2.02796 -3.57156,-2.54216 -3.06683,-0.6405 -5.12605,-0.18001 -7.077052,1.58261 -1.47797,1.33525 -2.218866,3.20598 -2.379266,6.00751 -0.189608,3.31173 0.51277,5.51962 2.282542,7.17503 1.520336,1.4221 2.894476,1.87875 5.186846,1.72369 3.06661,-0.20743 4.98121,-1.88754 5.01201,-4.39819 l 0.0151,-1.23179 -2.18101,-0.0768 -2.18101,-0.0768 v -1.70768 -1.70769 h 4.89075 4.89076 v 1.68754 c 0,1.45802 -0.071,1.70611 -0.52206,1.82406 -0.48909,0.1279 -0.52664,0.40939 -0.59482,4.45895 l -0.0728,4.32242 h -1.45401 -1.454 l -0.2449,-0.99136 c -0.30692,-1.24241 -0.87046,-1.28843 -2.24552,-0.18341 -0.55298,0.44439 -1.5761,0.97973 -2.27362,1.18965 -1.55305,0.4674 -4.89267,0.46798 -6.385774,0.001 z m 22.702997,-1.52971 0.0789,-1.65858 1.05403,-0.0858 c 0.57972,-0.0472 1.14298,-0.22563 1.25168,-0.39655 0.35182,-0.55314 0.2468,-15.36496 -0.11148,-15.72324 -0.17448,-0.17448 -0.7693,-0.31723 -1.32183,-0.31723 h -1.00458 v -1.58619 -1.58619 h 4.62638 4.62639 v 1.58619 1.58619 h -1.02509 c -0.5638,0 -1.16044,0.16309 -1.32587,0.36242 -0.21338,0.25711 -0.2804,2.61922 -0.23064,8.12922 l 0.0701,7.7668 1.18964,0.13218 1.18964,0.13218 v 1.58619 1.58619 l -4.57308,0.0724 -4.57307,0.0724 z m 17.18379,-0.003 0.0788,-1.65586 1.09635,-0.08 c 0.86986,-0.0634 1.12853,-0.19997 1.25212,-0.66091 0.27984,-1.04358 0.18067,-14.72621 -0.11066,-15.27058 -0.19993,-0.37356 -0.55611,-0.51135 -1.32183,-0.51135 h -1.04816 v -1.58619 -1.58619 h 8.6899 8.6899 l 0.17127,1.65228 c 0.0942,0.90875 0.24002,2.25911 0.32405,3.00079 l 0.15278,1.34852 -1.49762,0.17602 c -0.82369,0.0968 -1.59382,0.11656 -1.71139,0.0439 -0.11758,-0.0727 -0.35618,-0.69764 -0.53023,-1.38884 -0.17404,-0.69119 -0.45635,-1.3457 -0.62734,-1.45445 -0.37152,-0.2363 -6.03553,-0.27503 -6.63402,-0.0454 -0.62131,0.23842 -0.62131,6.04978 0,6.28819 0.22999,0.0883 2.49031,0.16047 5.02293,0.16047 h 4.60477 v 1.58619 1.58619 h -4.72621 c -3.71966,0 -4.79135,0.0785 -5.03216,0.36866 -0.20143,0.24271 -0.28023,1.34912 -0.23064,3.23847 l 0.0753,2.86981 h 3.69876 3.69877 l 0.37865,-1.41638 0.37866,-1.41637 1.53477,0.11102 c 0.84413,0.0611 1.59219,0.16842 1.66235,0.23859 0.0702,0.0702 -0.0165,1.43085 -0.19271,3.02373 l -0.32028,2.89615 -8.80285,0.0697 -8.80284,0.0697 0.0788,-1.65586 z m -72.286602,-6.29004 -0.07059,-6.99787 -7.092341,-0.0704 c -3.900788,-0.0387 -7.05334,-0.1659 -7.005672,-0.28256 0.04767,-0.11665 1.894042,-1.96063 4.103053,-4.09771 l 4.016385,-3.88562 6.954762,0.0705 6.954762,0.0705 0.06995,7.13786 0.06995,7.13785 -3.964828,3.95767 -3.964828,3.95768 z"
         id="path63" />
    </g>
  </g>
</svg>
